# xmcd
#
# Track frame offsets:
#	150
#	19300
#	47100
#
# Disc length: 882 seconds
#
# Revision: 1
# Processed by: cddbd v1.5.1PL0 Copyright (c) Steve Scherf et al.
# Submitted via: CDex 1.50Beta5
#
DISCID=20037003
DTITLE=THE BOOM - 真夏の奇蹟
DYEAR=1900
DGENRE=Pop
TTITLE0=真夏の奇蹟
TTITLE1=18時
TTITLE2=真夏の奇蹟
EXTD=
EXTT0=
EXTT1=
EXTT2=
PLAYORDER=
